<svg width="320" height="220" viewBox="0 0 320 220" fill="none" xmlns="http://www.w3.org/2000/svg">
  <rect x="24" y="28" width="272" height="160" rx="18" fill="#F4F7FB" stroke="#D7DEEA" stroke-width="3"/>
  <rect x="52" y="56" width="160" height="12" rx="6" fill="#E3E8F1"/>
  <rect x="52" y="80" width="124" height="12" rx="6" fill="#E3E8F1"/>
  <rect x="52" y="104" width="94" height="12" rx="6" fill="#E3E8F1"/>
  <rect x="52" y="136" width="216" height="36" rx="12" fill="#ffffff" stroke="#D7DEEA" stroke-width="2"/>
  <path d="M214 154C214 162.284 207.284 169 199 169C190.716 169 184 162.284 184 154C184 145.716 190.716 139 199 139C207.284 139 214 145.716 214 154Z" fill="#0F4C81" fill-opacity="0.12"/>
  <path d="M202 150.5L197 155.5L196 154.5" stroke="#0F4C81" stroke-width="2" stroke-linecap="round" stroke-linejoin="round"/>
  <circle cx="94" cy="154" r="8" fill="#F7B801" fill-opacity="0.2"/>
  <circle cx="118" cy="154" r="8" fill="#1B8755" fill-opacity="0.2"/>
  <circle cx="142" cy="154" r="8" fill="#0F4C81" fill-opacity="0.2"/>
  <path d="M256 65L274 83" stroke="#0F4C81" stroke-width="3" stroke-linecap="round"/>
  <path d="M274 65L256 83" stroke="#0F4C81" stroke-width="3" stroke-linecap="round"/>
  <rect x="32" y="20" width="40" height="12" rx="6" fill="#0F4C81" fill-opacity="0.12"/>
  <rect x="244" y="180" width="44" height="12" rx="6" fill="#1B8755" fill-opacity="0.12"/>
  <rect x="40" y="184" width="52" height="8" rx="4" fill="#0F4C81" fill-opacity="0.12"/>
</svg>
